<svg xmlns="http://www.w3.org/2000/svg" xmlns:xlink="http://www.w3.org/1999/xlink" viewBox="0 0 100 125" version="1.1" x="0px" y="0px"><title>lab-glass-5</title><desc>Created with Sketch.</desc><g stroke="none" stroke-width="1" fill="none" fill-rule="evenodd"><path d="M86.7176271,16.50446 C82.3953627,16.50446 78.8264037,19.7800965 78.354906,23.9787291 L59.8501358,23.9787291 L59.8501358,28.8270347 L78.2985445,28.8270347 L78.2985445,37.8479132 L70.151573,37.8479132 L70.151573,42.6962187 L78.2985445,42.6962187 L78.2985445,50.6474399 L19.6498042,50.6474399 L19.6498042,36.6358368 C19.6498042,29.13369 17.1959555,21.6776021 12.7403627,15.6402496 L11.2592054,13.6336571 C10.9452776,13.2088243 11.0701215,12.8058089 11.1719359,12.6027861 C11.2743563,12.4003694 11.5246501,12.060382 12.0537214,12.060382 L86.5376337,12.060382 C87.7854664,12.060382 88.8611842,12.9882264 88.9345148,14.1287903 C88.9751194,14.7542217 88.7642181,15.3487452 88.3399913,15.8014557 C87.9145525,16.2547723 87.3388162,16.50446 86.7176271,16.50446 Z M77.6900821,66.2686804 L59.8501358,66.2686804 L59.8501358,61.4203748 L77.6900821,61.4203748 L77.6900821,66.2686804 Z M70.151573,76.5022413 L77.6900821,76.5022413 L77.6900821,81.3505469 L70.151573,81.3505469 L70.151573,76.5022413 Z M86.5376337,6 L12.0537214,6 C9.37806282,6 6.96724288,7.4835815 5.76183291,9.87197803 C4.55642294,12.2603746 4.79459595,15.0808763 6.38302206,17.2329179 L7.8641794,19.2395104 C11.5561641,24.2417497 13.5894222,30.419703 13.5894222,36.6358368 L13.5894222,83.0674531 C13.5894222,89.1387437 18.5280275,94.077349 24.5987121,94.077349 L73.3496366,94.077349 C79.4203212,94.077349 84.3589264,89.1387437 84.3589264,83.0674531 L84.3589264,24.9235426 C84.3589264,23.6229847 85.4170691,22.564842 86.7176271,22.564842 C88.9987548,22.564842 91.2017037,21.6103318 92.761646,19.9455449 C94.3209823,18.2819701 95.1306493,16.0190234 94.982776,13.7372896 C94.7015743,9.3986622 90.9920145,6 86.5376337,6 L86.5376337,6 Z" fill="#000000"/></g><text x="0" y="115" fill="#000000" font-size="5px" font-weight="bold" font-family="'Helvetica Neue', Helvetica, Arial-Unicode, Arial, Sans-serif">Created by Icon Island</text><text x="0" y="120" fill="#000000" font-size="5px" font-weight="bold" font-family="'Helvetica Neue', Helvetica, Arial-Unicode, Arial, Sans-serif">from the Noun Project</text></svg>