<svg xmlns="http://www.w3.org/2000/svg" data-name="Layer 1" viewBox="0 0 64 80" x="0px" y="0px"><title>syringes-medica-medicine-doctor-syringe-drugs</title><path d="M15,50H5a1,1,0,0,1-1-1V18a1,1,0,0,1,1-1H15a1,1,0,0,1,1,1V49A1,1,0,0,1,15,50ZM6,48h8V19H6Z"/><rect x="2" y="48" width="16" height="2"/><path d="M13,19h0l-6.062-.021a1,1,0,0,1-1-1.01L6,11.99A1,1,0,0,1,7,11h6a1,1,0,0,1,1,1v6a1,1,0,0,1-1,1ZM7.948,16.982,12,17V13H7.989Z"/><rect x="8.995" y="49" width="2" height="12.125"/><rect x="4" y="60" width="12" height="2"/><rect x="9" y="2" width="2" height="10"/><rect x="9" y="41" width="6" height="2"/><rect x="9" y="33" width="6" height="2"/><rect x="9" y="25" width="6" height="2"/><rect x="12" y="37" width="3" height="2"/><rect x="12" y="29" width="3" height="2"/><rect x="11" y="21" width="4" height="2"/><path d="M59,30H53a1,1,0,0,1-1-1V9a1,1,0,0,1,1-1h6a1,1,0,0,1,1,1V29A1,1,0,0,1,59,30Zm-5-2h4V10H54Z"/><rect x="51" y="8" width="10" height="2"/><path d="M58,34H54a1,1,0,0,1-1-1V29a1,1,0,0,1,1-1h4a1,1,0,0,1,1,1v4A1,1,0,0,1,58,34Zm-3-2h2V30H55Z"/><rect x="55" y="3" width="2" height="6"/><rect x="52.244" y="2" width="7.5" height="2"/><rect x="55" y="33.125" width="2" height="6.132"/><rect x="53" y="13" width="3" height="2"/><rect x="53" y="22" width="4" height="2"/><rect x="53" y="16" width="4" height="2"/><rect x="53" y="19" width="2" height="2"/><rect x="53" y="25" width="3" height="2"/><path d="M38,62H29a3,3,0,0,1-3-3V44a3,3,0,0,1,3-3h1V39a1,1,0,0,1,1-1h5a1,1,0,0,1,1,1v2h1a3,3,0,0,1,3,3V59A3,3,0,0,1,38,62ZM29,43a1,1,0,0,0-1,1V59a1,1,0,0,0,1,1h9a1,1,0,0,0,1-1V44a1,1,0,0,0-1-1H36a1,1,0,0,1-1-1V40H32v2a1,1,0,0,1-1,1Z"/><path d="M39,40H28a1,1,0,0,1-1-1V34a1,1,0,0,1,1-1H39a1,1,0,0,1,1,1v5A1,1,0,0,1,39,40ZM29,38h9V35H29Z"/><path d="M59.462,62H52.538A2.542,2.542,0,0,1,50,59.461V47.923a2.541,2.541,0,0,1,2.538-2.538h.539v-.539a1,1,0,0,1,1-1h3.846a1,1,0,0,1,1,1v.539h.539A2.541,2.541,0,0,1,62,47.923V59.461A2.542,2.542,0,0,1,59.462,62ZM52.538,47.385a.538.538,0,0,0-.538.538V59.461a.539.539,0,0,0,.538.539h6.924A.539.539,0,0,0,60,59.461V47.923a.538.538,0,0,0-.538-.538H57.923a1,1,0,0,1-1-1v-.539H55.077v.539a1,1,0,0,1-1,1Z"/><path d="M60.23,45.077H51.77a1,1,0,0,1-1-1V40.231a1,1,0,0,1,1-1h8.46a1,1,0,0,1,1,1v3.846A1,1,0,0,1,60.23,45.077Zm-7.46-2h6.46V41.231H52.77Z"/><text x="0" y="79" fill="#000000" font-size="5px" font-weight="bold" font-family="'Helvetica Neue', Helvetica, Arial-Unicode, Arial, Sans-serif">Created by Turkkub</text><text x="0" y="84" fill="#000000" font-size="5px" font-weight="bold" font-family="'Helvetica Neue', Helvetica, Arial-Unicode, Arial, Sans-serif">from the Noun Project</text></svg>