<svg xmlns="http://www.w3.org/2000/svg" xmlns:xlink="http://www.w3.org/1999/xlink" version="1.1" x="0px" y="0px" viewBox="0 0 64 80" style="enable-background:new 0 0 64 64;" xml:space="preserve"><path d="M62.073,18.525L58,13.638V7h-2V1H44v2h-9V1h-6v2.726C27.533,2.059,25.39,1,23,1c-3.358,0-6.234,2.082-7.419,5.021  C8.607,6.245,3,11.973,3,19v17H1v9c0,2.757,2.243,5,5,5s5-2.243,5-5v-9H9V19c0-3.724,2.925-6.769,6.596-6.98  C16.791,14.938,19.658,17,23,17c2.39,0,4.533-1.059,6-2.726V17h6v-2h5.865l-2.938,3.525C37.329,19.243,37,20.152,37,21.086V58  c0,2.757,2.243,5,5,5h16c2.757,0,5-2.243,5-5V21.086C63,20.152,62.671,19.243,62.073,18.525z M60.992,21  C60.994,21.029,61,21.057,61,21.086V53H39V21.086c0-0.029,0.006-0.057,0.008-0.086H55v-2H40.135l3.333-4h13.063l3.333,4H57v2H60.992  z M57,61h-2v-6h2V61z M43,55h2v6h-2V55z M47,55h6v6h-6V55z M56,9v4H44V9H56z M54,3v4h-8V3H54z M9,38v2H3v-2H9z M7,44v-2h2v2H7z   M3,44v-2h2v2H3z M6,48c-1.302,0-2.402-0.839-2.816-2h5.631C8.402,47.161,7.302,48,6,48z M7,19v17H5V19  C5,13.251,9.435,8.526,15.062,8.047C15.025,8.36,15,8.677,15,9c0,0.356,0.031,0.704,0.077,1.047C10.546,10.511,7,14.349,7,19z   M24,14.91V12h-2v2.91c-2.507-0.423-4.486-2.403-4.91-4.91H20V8h-2.91c0.423-2.507,2.403-4.486,4.91-4.91V6h2V3.09  c2.507,0.423,4.486,2.403,4.91,4.91H26v2h2.91C28.486,12.507,26.507,14.486,24,14.91z M33,15h-2V3h2V15z M35,5h9v2h-2v6h-7V5z   M39,58v-3h2v5.816C39.839,60.402,39,59.302,39,58z M59,60.816V55h2v3C61,59.302,60.161,60.402,59,60.816z"/><text x="0" y="79" fill="#000000" font-size="5px" font-weight="bold" font-family="'Helvetica Neue', Helvetica, Arial-Unicode, Arial, Sans-serif">Created by Eucalyp</text><text x="0" y="84" fill="#000000" font-size="5px" font-weight="bold" font-family="'Helvetica Neue', Helvetica, Arial-Unicode, Arial, Sans-serif">from the Noun Project</text></svg>