<svg xmlns="http://www.w3.org/2000/svg" version="1.1" viewBox="-5.0 -10.0 110.0 135.0">
 <g>
  <path d="m2.7539 29.039v41.922h17.191l29.348 18.902 0.027343-79.727-29.398 18.902z"/>
  <path d="m62.438 33.805-4.3164 4.0742c3.1289 3.3125 4.7812 7.6484 4.6523 12.203-0.13281 4.5547-2.0273 8.7891-5.3438 11.918l4.0742 4.3164c4.4688-4.2188 7.0234-9.9219 7.1992-16.066 0.17969-6.1367-2.0469-11.98-6.2656-16.445z"/>
  <path d="m71.527 22.422-4.3164 4.0742c6.0859 6.4414 9.2969 14.867 9.043 23.723-0.25 8.8555-3.9375 17.082-10.379 23.164l4.0742 4.3164c7.5938-7.1719 11.941-16.871 12.238-27.312 0.29688-10.441-3.4883-20.371-10.66-27.965z"/>
  <path d="m81.883 10.289-4.3164 4.0742c9.2344 9.7734 14.105 22.559 13.723 35.996-0.38281 13.438-5.9766 25.922-15.754 35.152l4.0742 4.3164c10.926-10.32 17.18-24.273 17.609-39.297 0.43359-15.023-5.0156-29.312-15.336-40.242z"/>
 </g>
<text x="0.0" y="117.5" font-size="5.0" font-weight="bold" font-family="Arbeit Regular, Helvetica, Arial-Unicode, Arial, Sans-serif" fill="#000000">Created by kenzi mebius</text><text x="0.0" y="122.5" font-size="5.0" font-weight="bold" font-family="Arbeit Regular, Helvetica, Arial-Unicode, Arial, Sans-serif" fill="#000000">from Noun Project</text></svg>