<svg xmlns="http://www.w3.org/2000/svg" xmlns:xlink="http://www.w3.org/1999/xlink" version="1.1" x="0px" y="0px" viewBox="0 0 60 75" style="enable-background:new 0 0 60 60;" xml:space="preserve"><path d="M37.32,6H13.27c-0.55,0-1,0.45-1,1s0.45,1,1,1h24.05c5.21,0,8.41,1.85,8.41,3.18c0,0.31-0.17,0.59-0.37,0.83  c-1.93-1.15-4.85-1.83-8.04-1.83c-3.6,0-6.87,0.86-8.73,2.29c-1.39,1.03-1.68,2.14-1.68,2.89c0,0.56,0.16,1.32,0.82,2.09  c-0.65,0.78-0.82,1.53-0.82,2.09s0.16,1.32,0.82,2.09c-0.65,0.78-0.82,1.53-0.82,2.09c0,0.56,0.16,1.32,0.82,2.09  c-0.65,0.78-0.82,1.53-0.82,2.09c0,0.56,0.16,1.32,0.82,2.09c-0.65,0.78-0.82,1.53-0.82,2.09c0,0.56,0.16,1.32,0.82,2.09  c-0.65,0.78-0.82,1.53-0.82,2.09c0,0.56,0.16,1.32,0.82,2.09c-0.65,0.78-0.82,1.53-0.82,2.09c0,0.56,0.16,1.32,0.82,2.1  c-0.29,0.34-0.5,0.71-0.64,1.09H13.27c-0.55,0-1,0.45-1,1s0.45,1,1,1h13.82c0.14,0.38,0.35,0.75,0.64,1.09  c-0.53,0.63-0.82,1.34-0.82,2.09c0,2.95,4.48,5.18,10.41,5.18s10.41-2.23,10.41-5.18c0-0.75-0.29-1.46-0.82-2.09  c0.53-0.63,0.82-1.34,0.82-2.09c0-0.75-0.29-1.45-0.82-2.09c0.66-0.78,0.82-1.54,0.82-2.1c0-0.56-0.16-1.32-0.81-2.09  c0.65-0.78,0.81-1.53,0.81-2.09c0-0.56-0.16-1.32-0.81-2.09c0.65-0.77,0.81-1.53,0.81-2.09c0-0.56-0.16-1.32-0.81-2.09  c0.65-0.78,0.81-1.53,0.81-2.09c0-0.56-0.16-1.32-0.81-2.09c0.65-0.78,0.81-1.53,0.81-2.09c0-0.56-0.16-1.32-0.81-2.09  c0.65-0.78,0.81-1.53,0.81-2.09c0-0.56-0.16-1.32-0.81-2.09c0.65-0.78,0.81-1.53,0.81-2.09c0-0.56-0.16-1.32-0.81-2.09  c0.65-0.78,0.81-1.53,0.81-2.09C47.73,8.23,43.25,6,37.32,6z M37.32,52c-5.21,0-8.41-1.85-8.41-3.18c0-0.26,0.13-0.54,0.36-0.82  c1.88,1.13,4.73,1.82,8.05,1.82c3.31,0,6.17-0.7,8.05-1.82c0.24,0.28,0.36,0.56,0.36,0.82C45.73,50.15,42.53,52,37.32,52z   M31.16,46.73c1.45-0.63,3.55-1.09,6.15-1.09s4.7,0.46,6.15,1.09c-1.45,0.63-3.55,1.09-6.15,1.09S32.62,47.36,31.16,46.73z   M45.36,45.46c-1.88-1.13-4.73-1.82-8.05-1.82h-7.88c1.11-1.1,3.9-2.18,7.88-2.18c5.21,0,8.41,1.85,8.41,3.18  C45.73,44.9,45.6,45.18,45.36,45.46z M45.36,41.27c-1.88-1.13-4.73-1.82-8.04-1.82c-3.31,0-6.16,0.69-8.04,1.82  c-0.2-0.23-0.37-0.51-0.37-0.82c0-0.56,0.55-1.05,0.89-1.3c1.51-1.16,4.39-1.88,7.52-1.88c3.13,0,6.01,0.72,7.54,1.89  c0.33,0.24,0.87,0.73,0.87,1.29C45.73,40.76,45.56,41.04,45.36,41.27z M45.35,37.1c-1.93-1.15-4.85-1.82-8.04-1.82  c-3.19,0-6.12,0.68-8.04,1.82c-0.2-0.24-0.37-0.52-0.37-0.82c0-0.56,0.55-1.05,0.89-1.3c1.51-1.16,4.39-1.88,7.52-1.88  s6.01,0.72,7.54,1.89c0.33,0.24,0.87,0.73,0.87,1.29C45.73,36.58,45.56,36.86,45.35,37.1z M45.35,32.92  c-1.93-1.15-4.85-1.82-8.04-1.82c-3.19,0-6.12,0.68-8.04,1.82c-0.2-0.24-0.37-0.52-0.37-0.82c0-0.56,0.55-1.05,0.89-1.3  c1.51-1.16,4.39-1.88,7.52-1.88s6.01,0.72,7.54,1.89c0.33,0.24,0.87,0.73,0.87,1.29C45.73,32.4,45.56,32.68,45.35,32.92z   M45.35,28.73c-1.93-1.15-4.85-1.82-8.04-1.82c-3.19,0-6.12,0.68-8.04,1.82c-0.2-0.24-0.37-0.52-0.37-0.82  c0-0.56,0.55-1.05,0.89-1.3c1.51-1.16,4.39-1.88,7.52-1.88c3.13,0,6.01,0.72,7.54,1.89c0.33,0.24,0.87,0.73,0.87,1.29  C45.73,28.22,45.56,28.5,45.35,28.73z M45.35,24.55c-1.93-1.15-4.85-1.83-8.04-1.83c-3.19,0-6.12,0.68-8.04,1.82  c-0.2-0.24-0.37-0.52-0.37-0.82c0-0.56,0.55-1.05,0.89-1.3c1.51-1.16,4.39-1.88,7.52-1.88s6.01,0.72,7.54,1.89  c0.33,0.24,0.87,0.73,0.87,1.29C45.73,24.03,45.56,24.32,45.35,24.55z M45.35,20.37c-1.93-1.15-4.85-1.82-8.04-1.82  c-3.19,0-6.12,0.68-8.04,1.82c-0.2-0.24-0.37-0.52-0.37-0.82c0-0.56,0.55-1.05,0.89-1.3c1.51-1.16,4.39-1.88,7.52-1.88  s6.01,0.72,7.54,1.89c0.33,0.24,0.87,0.73,0.87,1.29C45.73,19.85,45.56,20.13,45.35,20.37z M45.35,16.19  c-1.93-1.15-4.85-1.82-8.04-1.82c-3.19,0-6.12,0.68-8.04,1.82c-0.2-0.24-0.37-0.52-0.37-0.82c0-0.56,0.55-1.05,0.89-1.3  c1.51-1.16,4.39-1.88,7.52-1.88c3.13,0,6.01,0.72,7.54,1.89c0.33,0.24,0.87,0.73,0.87,1.29C45.73,15.67,45.56,15.95,45.35,16.19z"/><text x="0" y="75" fill="#000000" font-size="5px" font-weight="bold" font-family="'Helvetica Neue', Helvetica, Arial-Unicode, Arial, Sans-serif">Created by Vectorstall</text><text x="0" y="80" fill="#000000" font-size="5px" font-weight="bold" font-family="'Helvetica Neue', Helvetica, Arial-Unicode, Arial, Sans-serif">from the Noun Project</text></svg>