<svg xmlns="http://www.w3.org/2000/svg" xmlns:xlink="http://www.w3.org/1999/xlink" version="1.1" x="0px" y="0px" viewBox="0 0 1024 1280" style="enable-background:new 0 0 1024 1024;" xml:space="preserve"><g><g><path d="M720.4,461.6c0,24.6,0,49.2,0,73.8c0,39.2,0,78.4,0,117.6c0,9,0,18,0,26.9c10-10,20-20,30-30    c-15.9,0-31.7,0-47.6,0c-37.9,0-75.8,0-113.7,0c-45.8,0-91.7,0-137.5,0c-39.8,0-79.6,0-119.4,0c-19.3,0-38.7-0.5-57.9,0    c-0.3,0-0.5,0-0.8,0c10,10,20,20,30,30c0-27.5,0-55,0-82.4c0-40,0-80,0-120c0-16,0-31.8,2.1-47.7c-0.4,2.7-0.7,5.3-1.1,8    c2.9-21,8.4-41.4,16.6-60.9c-1,2.4-2,4.8-3,7.2c4.7-10.9,10.1-21.5,16.3-31.7c3.1-5,6.4-10,9.8-14.7c1.7-2.3,8.1-10.1,1.2-1.8    c1.9-2.4,3.8-4.8,5.8-7.1c7.5-8.8,15.6-17.1,24.3-24.7c2.1-1.9,4.3-3.7,6.5-5.5c1-0.8,2-1.6,3.1-2.5c3.5-2.8-3,2.4-3,2.3    c0.4-0.6,1.5-1.1,2.1-1.6c4.7-3.5,9.6-6.9,14.5-10.1c11.3-7.2,23.2-13.5,35.6-18.7c-2.4,1-4.8,2-7.2,3c19.5-8.2,40-13.8,60.9-16.6    c-2.7,0.4-5.3,0.7-8,1.1c21.2-2.8,42.6-2.8,63.8,0c-2.7-0.4-5.3-0.7-8-1.1c21,2.9,41.4,8.4,60.9,16.6c-2.4-1-4.8-2-7.2-3    c10.9,4.7,21.5,10.1,31.7,16.3c5,3.1,10,6.4,14.7,9.8c2.3,1.7,10.1,8.1,1.8,1.2c2.4,1.9,4.8,3.8,7.1,5.8    c8.8,7.5,17.1,15.6,24.7,24.3c1.9,2.1,3.7,4.3,5.5,6.5c0.8,1,1.6,2,2.5,3.1c2.8,3.5-2.4-3-2.3-3c0.6,0.4,1.1,1.5,1.6,2.1    c3.5,4.7,6.9,9.6,10.1,14.5c7.2,11.3,13.5,23.2,18.7,35.6c-1-2.4-2-4.8-3-7.2c8.2,19.5,13.8,40,16.6,60.9c-0.4-2.7-0.7-5.3-1.1-8    C719.7,440.3,720.4,451,720.4,461.6c0,15.7,13.8,30.7,30,30c16.2-0.7,30-13.2,30-30c-0.1-44.3-11.1-88-31.9-127.1    c-20.1-37.8-49.8-69.8-84.8-94.3c-70-49-165.2-60.9-245.1-30.2c-40.1,15.4-76.7,39.2-105.4,71.3c-28.7,32.1-50.2,70.7-61,112.4    c-12.1,46.8-8.7,96.6-8.7,144.5c0,46.3,0,92.5,0,138.8c0,0.9,0,1.9,0,2.8c0,16.2,13.7,30,30,30c15.9,0,31.7,0,47.6,0    c37.9,0,75.8,0,113.7,0c45.8,0,91.7,0,137.5,0c39.8,0,79.6,0,119.4,0c19.3,0,38.6,0.4,57.9,0c0.3,0,0.5,0,0.8,0    c16.2,0,30-13.7,30-30c0-24.6,0-49.2,0-73.8c0-39.2,0-78.4,0-117.6c0-9,0-18,0-26.9c0-15.7-13.8-30.7-30-30    C734.2,432.4,720.4,444.8,720.4,461.6z"/></g></g><g><g><path d="M767.3,688.6c0,14.1,0,28.1,0,42.2c0,14.1,0.9,28.5-0.1,42.5c0.4-2.7,0.7-5.3,1.1-8    c-0.1,0.8-0.4,1.6-0.7,2.4c1-2.4,2-4.8,3-7.2c-1.6,2.7-0.5,1.7,3.5-3c4.7-4,5.7-5.1,3-3.5c2.4-1,4.8-2,7.2-3    c-0.8,0.4-1.6,0.6-2.4,0.7c2.7-0.4,5.3-0.7,8-1.1c-5.3,0.4-10.6,0.1-15.9,0.1c-13.5,0-26.9,0-40.4,0c-44,0-88.1,0-132.1,0    c-53.3,0-106.5,0-159.8,0c-46.3,0-92.6,0-138.9,0c-22.2,0-44.4,0.5-66.6,0c-0.7,0-1.4,0-2.1-0.1c2.7,0.4,5.3,0.7,8,1.1    c-0.8-0.1-1.6-0.4-2.4-0.7c2.4,1,4.8,2,7.2,3c-2.7-1.6-1.7-0.5,3,3.5c4,4.7,5.1,5.7,3.5,3c1,2.4,2,4.8,3,7.2    c-0.4-0.8-0.6-1.6-0.7-2.4c0.4,2.7,0.7,5.3,1.1,8c-1-14.2-0.1-28.8-0.1-43c0-14.2-0.9-28.8,0.1-43c-0.4,2.7-0.7,5.3-1.1,8    c0.1-0.8,0.4-1.6,0.7-2.4c-1,2.4-2,4.8-3,7.2c1.6-2.7,0.5-1.7-3.5,3c-4.7,4-5.7,5.1-3,3.5c-2.4,1-4.8,2-7.2,3    c0.8-0.4,1.6-0.6,2.4-0.7c-2.7,0.4-5.3,0.7-8,1.1c5.3-0.4,10.6-0.1,15.9-0.1c13.5,0,26.9,0,40.4,0c44,0,88.1,0,132.1,0    c53.3,0,106.5,0,159.8,0c46.3,0,92.6,0,138.9,0c22.2,0,44.4-0.5,66.6,0c0.7,0,1.4,0,2.1,0.1c-2.7-0.4-5.3-0.7-8-1.1    c0.8,0.1,1.6,0.4,2.4,0.7c-2.4-1-4.8-2-7.2-3c2.7,1.6,1.7,0.5-3-3.5c-4-4.7-5.1-5.7-3.5-3c-1-2.4-2-4.8-3-7.2    c0.4,0.8,0.6,1.6,0.7,2.4c-0.4-2.7-0.7-5.3-1.1-8C767.2,687.8,767.3,688.2,767.3,688.6c0.6,8,2.9,15.4,8.8,21.2    c5.2,5.2,13.7,9.1,21.2,8.8c15.3-0.7,31.2-13.2,30-30c-1.1-14.5-7.1-26.1-19.9-33.8c-5.6-3.4-12.6-4.7-19-4.9c-0.7,0-1.5,0-2.3,0    c-4,0-8,0-12,0c-16.8,0-33.5,0-50.3,0c-55.7,0-111.4,0-167,0c-62.2,0-124.3,0-186.5,0c-40.9,0-81.9,0-122.8,0c-3.5,0-7.1,0-10.6,0    c-22.3,0.3-39.7,16.8-40.2,39.3c-0.6,25.2,0,50.4,0,75.6c0,2.9-0.1,5.7,0.1,8.6c1.1,21,17.8,36.9,38.8,37.4c2.4,0.1,4.7,0,7.1,0    c14.1,0,28.2,0,42.2,0c52.9,0,105.9,0,158.8,0c63.2,0,126.4,0,189.5,0c44.8,0,89.7,0,134.5,0c7,0,13.9,0.2,20.9,0    c22-0.6,38.2-17.8,38.7-39.5c0.1-4,0-8,0-11.9c0-14.9,0-29.7,0-44.6c0-8.7,0-17.4,0-26.2c0-15.7-13.8-30.7-30-30    C781.1,659.3,767.3,671.8,767.3,688.6z"/></g></g><g><g><path d="M693.3,907.8c0-36.9,0-73.8,0-110.7c0-5.3,0-10.5,0-15.8c0-15.7-13.8-30.7-30-30c-16.3,0.7-30,13.2-30,30    c0,36.9,0,73.8,0,110.7c0,5.3,0,10.5,0,15.8c0,15.7,13.8,30.7,30,30C679.6,937.1,693.3,924.6,693.3,907.8L693.3,907.8z"/></g></g><g><g><path d="M390.7,972c0-21.5,0-43,0-64.5c0-34.2,0-68.5,0-102.7c0-7.8,0-15.7,0-23.5c0-15.7-13.8-30.7-30-30    c-16.3,0.7-30,13.2-30,30c0,21.5,0,43,0,64.5c0,34.2,0,68.5,0,102.7c0,7.8,0,15.7,0,23.5c0,15.7,13.8,30.7,30,30    C376.9,1001.3,390.7,988.8,390.7,972L390.7,972z"/></g></g><g><g><path d="M482,52c0,19.3,0,38.7,0,58c0,15.7,13.8,30.7,30,30c16.3-0.7,30-13.2,30-30c0-19.3,0-38.7,0-58    c0-15.7-13.8-30.7-30-30C495.7,22.7,482,35.2,482,52L482,52z"/></g></g><g><g><path d="M237.4,169c14.1,14.1,28.2,28.2,42.3,42.3c11.1,11.1,31.5,11.9,42.4,0c11-12,11.9-30.6,0-42.4    c-14.1-14.1-28.2-28.2-42.3-42.3c-11.1-11.1-31.5-11.9-42.4,0C226.4,138.5,225.6,157.1,237.4,169L237.4,169z"/></g></g><g><g><path d="M744.5,126.5c-14.1,14.1-28.2,28.2-42.3,42.3c-11.1,11.1-11.9,31.5,0,42.4c12,11,30.6,11.9,42.4,0    c14.1-14.1,28.2-28.2,42.3-42.3c11.1-11.1,11.9-31.5,0-42.4C774.9,115.6,756.3,114.7,744.5,126.5L744.5,126.5z"/></g></g><g><g><path d="M408.7,457.8c0-6,0.4-12,1.2-18c-0.4,2.7-0.7,5.3-1.1,8c1.6-11.6,4.7-22.8,9.1-33.6c-1,2.4-2,4.8-3,7.2    c3.3-7.7,7.2-15,11.8-22c1.2-1.8,2.5-3.6,3.7-5.4c2.7-3.8-4.2,5.1-1.9,2.4c0.7-0.8,1.4-1.7,2.1-2.5c2.6-3.2,5.4-6.2,8.3-9.2    c2.9-2.9,6-5.7,9.2-8.3c0.7-0.6,1.4-1.1,2-1.6c4-3.3-5,3.7-2.4,1.9c1.8-1.2,3.5-2.6,5.3-3.8c7.1-4.8,14.7-8.8,22.5-12.1    c-2.4,1-4.8,2-7.2,3c10.8-4.5,22-7.5,33.6-9.1c-2.7,0.4-5.3,0.7-8,1.1c6-0.8,12-1.2,18-1.2c15.7,0,30.7-13.8,30-30    c-0.7-16.3-13.2-30-30-30c-32.3,0-65.5,9.8-92,28.4c-28.6,20.2-49.6,47.4-61.9,80.2c-6.5,17.3-9.4,36.2-9.5,54.6    c-0.1,15.7,13.9,30.7,30,30C395,487.1,408.6,474.6,408.7,457.8L408.7,457.8z"/></g></g><text x="0" y="1039" fill="#000000" font-size="5px" font-weight="bold" font-family="'Helvetica Neue', Helvetica, Arial-Unicode, Arial, Sans-serif">Created by shashank singh</text><text x="0" y="1044" fill="#000000" font-size="5px" font-weight="bold" font-family="'Helvetica Neue', Helvetica, Arial-Unicode, Arial, Sans-serif">from the Noun Project</text></svg>