<svg xmlns="http://www.w3.org/2000/svg" fill="none" viewBox="0 0 128 160" x="0px" y="0px"><path fill="#000" fill-rule="evenodd" d="M99 28v23.5c6.257 2.662 10 6.308 10 10v17.726a6 6 0 0 1-4.018 5.663A123.915 123.915 0 0 1 93.5 88.297v22.073a4 4 0 0 1-8 0V89.978A124.057 124.057 0 0 1 67 91.82v9.551a4 4 0 0 1-8 0v-9.616a124.037 124.037 0 0 1-18-2.05v20.666a4 4 0 0 1-8 0V87.92a123.982 123.982 0 0 1-9.983-3.03A6 6 0 0 1 19 79.225V61.5c0-3.692 3.743-7.338 10-10V28c0-7.732 15.67-14 35-14s35 6.268 35 14Zm-8.666 0c-3.091-2.479-7.38-3.617-11.172-4.454 1.178 2.577 3.547 7.99 3.547 7.99 2.648-.796 5.447-1.79 7.625-3.536ZM45.29 31.536c-2.648-.796-5.447-1.79-7.625-3.536 3.091-2.479 7.38-3.617 11.172-4.454-1.178 2.577-3.547 7.99-3.547 7.99ZM64 42c10.869 0 20.58-1.982 27-5.091v13.215a76 76 0 0 1-54 0V36.909C43.42 40.019 53.131 42 64 42ZM35.161 57.976a84 84 0 0 0 57.678 0c2.55.855 5.204 1.874 7.358 3.524-1.316 1.008-3.586 2.226-6.983 3.396C86.112 67.343 75.785 69 64 69c-11.783 0-22.112-1.657-29.215-4.104-3.396-1.17-5.666-2.388-6.982-3.396 2.154-1.65 4.809-2.67 7.358-3.524ZM64 77c15.333 0 28.875-2.641 37-6.675v7.473c-24 8.076-50 8.076-74 0v-7.473C35.125 74.359 48.667 77 64 77Zm-9.773-46 3.2-7h13.146l3.2 7H54.227Z" clip-rule="evenodd"/><text x="0" y="143" fill="#000000" font-size="5px" font-weight="bold" font-family="'Helvetica Neue', Helvetica, Arial-Unicode, Arial, Sans-serif">Created by Marz Gallery</text><text x="0" y="148" fill="#000000" font-size="5px" font-weight="bold" font-family="'Helvetica Neue', Helvetica, Arial-Unicode, Arial, Sans-serif">from the Noun Project</text></svg>